PathFileType	4	(X/Y/Z)	E:\Qualisys_Data\Carbon_Farble_Plate\Data\Amateur_Runner\S14\T1\S14T1V21_c3d.trc
DataRate	CameraRate	NumFrames	NumMarkers	Units	OrigDataRate	OrigDataStartFrame	OrigNumFrames
200.000000	200.000000	4	39	mm	200.000000	114	306
Frame#	Time	LSHO			RSHO			LICST			RICST			LASIS			LHEEL			RASIS			LTROC			RTROC			SACR			LTH1			LSK4			LTH2			LTH3			RHM5			LSK2			LTH4			RTH1			LTOE			RTH2			RTH3			RTH4			LLEP			RLEP			LSK1			LSK3			RSK1			LHM5			RSK2			LFT1			RSK3			RSK4			LLME			RLME			RTOE			RHEEL			RFT1			RFT2			LFT2			
		X1	Y1	Z1	X2	Y2	Z2	X3	Y3	Z3	X4	Y4	Z4	X5	Y5	Z5	X6	Y6	Z6	X7	Y7	Z7	X8	Y8	Z8	X9	Y9	Z9	X10	Y10	Z10	X11	Y11	Z11	X12	Y12	Z12	X13	Y13	Z13	X14	Y14	Z14	X15	Y15	Z15	X16	Y16	Z16	X17	Y17	Z17	X18	Y18	Z18	X19	Y19	Z19	X20	Y20	Z20	X21	Y21	Z21	X22	Y22	Z22	X23	Y23	Z23	X24	Y24	Z24	X25	Y25	Z25	X26	Y26	Z26	X27	Y27	Z27	X28	Y28	Z28	X29	Y29	Z29	X30	Y30	Z30	X31	Y31	Z31	X32	Y32	Z32	X33	Y33	Z33	X34	Y34	Z34	X35	Y35	Z35	X36	Y36	Z36	X37	Y37	Z37	X38	Y38	Z38	X39	Y39	Z39	

115	0.57	-592.939453125	1414.46875	-513.6976928710938	-592.049072265625	1422.240478515625	-209.4177703857422	-649.0203247070312	971.2495727539062	-477.5064086914062	-603.70068359375	972.3147583007812	-201.3343200683594	-606.183837890625	920.1073608398438	-455.8087463378906	-1045.992431640625	154.7381896972656	-316.6742248535156	-579.6828002929688	931.9421997070312	-222.8130340576172	-761.7488403320312	858.1322021484375	-469.5877990722656	-715.4812622070312	880.9033203125	-160.1203918457031	-762.49072265625	984.7417602539062	-329.4476318359375	-705.8123168945312	626.3638305664062	-472.4833068847656	-909.9029541015624	322.5606384277344	-406.8299865722656	-779.8746337890625	638.1000366210938	-450.3560791015625	-708.7625122070312	530.4212646484375	-442.1948547363281	-724.8380126953125	195.2628173828125	-159.7687683105469	-854.1972045898438	400.0694580078125	-430.397705078125	-786.3180541992188	542.9677124023438	-425.8092956542969	-480.5046691894531	720.6868286132812	-159.7027587890625	-817.33154296875	62.40046310424805	-350.2796020507812	-547.1239013671875	680.9893798828125	-146.4102478027344	-426.424072265625	637.785888671875	-181.4649505615234	-495.450439453125	593.508056640625	-159.2333984375	-749.8170776367188	465.932861328125	-429.8265380859375	-450.2517700195312	548.0069580078125	-165.7387084960938	-784.3494262695312	354.715087890625	-421.8932495117188	-845.0560302734375	274.3641662597656	-401.7544860839844	-505.0658569335938	452.646484375	-168.4238433837891	-885.2875366210938	62.9923095703125	-409.9515686035156	-558.0001220703125	519.9589233398438	-165.6150970458984	-1041.161254882812	127.8750228881836	-288.91748046875	-590.8289794921875	395.0455627441406	-179.9953308105469	-634.2407836914062	461.5210266113281	-176.4262084960938	-980.8099365234376	157.5927276611328	-377.3610534667969	-753.1825561523438	335.4241027832031	-192.1990051269531	-679.0399780273438	137.6860809326172	-220.9207458496094	-809.3517456054688	362.5265502929688	-245.7960357666016	-828.730712890625	331.3753662109375	-274.174560546875	-827.2304077148438	349.0272216796875	-218.7527923583984	-1053.3330078125	128.0028076171875	-342.9747009277344
116	0.575	-571.3582763671875	1419.308837890625	-512.5938720703125	-573.9826049804688	1426.864379882812	-209.2208251953125	-627.0906372070312	974.5520629882812	-477.7430725097656	-582.5870971679688	976.5658569335938	-201.7147369384766	-584.9713745117188	923.1232299804688	-455.86083984375	-1039.2392578125	163.6905975341797	-318.8124084472656	-558.719482421875	936.2880859375	-223.2181396484375	-741.6251220703125	862.527099609375	-470.3660888671875	-694.6141357421875	885.570556640625	-159.8088073730469	-741.5015258789062	988.8855590820312	-329.9185791015625	-692.1828002929688	631.0079345703125	-472.7226257324219	-902.816162109375	329.5147399902344	-407.9649047851562	-765.7904052734375	644.8220825195312	-450.1465148925781	-698.2830200195312	535.089599609375	-443.1305236816406	-683.4766235351562	188.5197448730469	-159.5864715576172	-846.282958984375	407.0001220703125	-431.6401062011719	-775.3994140625	549.5743408203125	-426.3475036621094	-458.707763671875	726.7249755859375	-160.4840850830078	-816.3877563476562	62.34558486938477	-351.0466613769531	-524.9130249023438	686.15283203125	-147.5476226806641	-403.812744140625	644.4598999023438	-182.2826080322266	-472.453369140625	598.7954711914062	-161.120849609375	-740.7686767578125	471.5958557128906	-430.3866882324219	-427.2533264160156	554.0900268554688	-167.8235626220703	-777.1151733398438	360.753173828125	-423.2844848632812	-838.4859619140625	280.8528747558594	-403.6434631347656	-477.0394897460938	455.4814758300781	-168.78173828125	-883.8009033203125	63.66168975830078	-410.7638244628906	-533.7916259765625	520.840576171875	-167.0591278076172	-1035.784301757812	137.1598663330078	-290.8924865722656	-560.4243774414062	393.6606750488281	-180.5588073730469	-606.7496337890625	458.4085083007812	-177.1578979492188	-974.2189331054688	164.4795379638672	-378.7849731445312	-719.8815307617188	326.5821533203125	-192.6816711425781	-634.8284912109375	133.6612854003906	-220.6990051269531	-777.5728149414062	349.06298828125	-247.4415283203125	-792.2577514648438	318.5725708007812	-274.95166015625	-794.8667602539062	335.6460266113281	-219.1614074707031	-1047.242919921875	137.1166381835938	-343.8790893554688
117	0.58	-549.8802490234375	1424.26953125	-511.7235717773438	-555.8226928710938	1431.280029296875	-208.6932830810547	-604.94775390625	977.972412109375	-477.74951171875	-561.5596313476562	980.6953125	-201.9535522460938	-563.6336059570312	926.160400390625	-456.0459289550781	-1031.509643554688	172.84521484375	-320.8628540039062	-538.1771850585938	940.2955932617188	-223.1782836914062	-720.8330078125	867.0802612304688	-471.2680969238281	-673.6888427734375	890.3444213867188	-158.9207611083984	-720.29541015625	992.3621215820312	-330.70263671875	-678.4545288085938	635.7394409179688	-473.1361694335938	-895.2396240234375	336.8392333984375	-409.7357482910156	-751.5228271484375	651.3634643554688	-450.3638610839844	-686.7017211914062	539.9464111328125	-443.8512573242188	-642.230224609375	181.9018249511719	-159.7259216308594	-837.6812133789062	414.4617004394531	-432.6155090332031	-763.7379150390625	556.4467163085938	-426.6398315429688	-437.0556030273438	732.1387939453125	-161.1997222900391	-814.9693603515625	62.17160034179688	-351.9279174804688	-502.4585876464844	691.4496459960938	-148.3492126464844	-381.4144897460938	650.2931518554688	-182.8811340332031	-449.8743896484375	604.1612548828125	-162.5039978027344	-731.3789672851562	477.30126953125	-431.2183532714844	-403.7736206054688	559.5083618164062	-170.0086059570312	-769.0721435546875	367.1053161621094	-424.6461181640625	-830.404296875	288.3812255859375	-405.9190368652344	-450.2440185546875	458.5964050292969	-169.4249420166016	-881.2777709960938	64.15660858154297	-411.4549255371094	-509.4253234863281	520.8489379882812	-168.9392700195312	-1029.122314453125	146.6560821533203	-292.5511779785156	-529.5816650390625	392.467529296875	-181.4966735839844	-579.571533203125	455.2347106933594	-178.0991058349609	-967.4129028320312	171.1490936279297	-380.5078125	-686.5182495117188	317.4396057128906	-193.5693206787109	-590.3858642578125	129.8192749023438	-221.0358581542969	-745.2130737304688	337.2900085449219	-247.6732482910156	-758.4044799804688	305.8483276367188	-275.9216003417969	-761.5377807617188	323.0109252929688	-218.9573516845703	-1040.574462890625	146.1208801269531	-345.5972290039062
118	0.585	-528.33544921875	1429.05126953125	-510.6141662597656	-537.3175048828125	1435.954345703125	-208.5678405761719	-582.9931640625	981.5048217773438	-477.277587890625	-540.8325805664062	985.4559326171876	-201.8395080566406	-542.4127807617188	929.3602294921876	-455.9761047363281	-1022.916564941406	182.4249877929688	-323.0718994140625	-517.241455078125	944.7642211914062	-223.3172302246094	-700.7734985351562	871.4970092773438	-471.8040466308594	-653.6598510742188	894.8741455078125	-158.7499084472656	-698.7720336914062	996.6464233398438	-331.1838073730469	-664.2666625976562	641.2208251953125	-474.0087890625	-886.8776245117188	344.4169616699219	-411.1694030761719	-737.0491943359375	658.6851806640625	-450.6811218261719	-675.113037109375	545.4588012695312	-444.7022094726562	-600.7706909179688	175.8733367919922	-160.0995025634766	-828.7770385742188	421.7833557128906	-434.0860290527344	-751.673095703125	563.794677734375	-427.3248596191406	-415.0140991210938	737.4558715820312	-161.4095458984375	-813.3468627929688	61.54645156860352	-352.7076110839844	-480.742919921875	696.5157470703125	-149.1589813232422	-359.1888122558594	656.2118530273438	-183.9688415527344	-427.4378967285156	609.416015625	-164.0734252929688	-721.309814453125	483.2575378417969	-432.4864807128906	-380.7919311523438	564.8704223632812	-171.7395629882812	-760.6022338867188	374.1082458496094	-426.3450317382812	-823.0061645507812	294.97802734375	-407.9720764160156	-422.9342956542969	461.4472961425781	-170.2765350341797	-878.8407592773438	64.7120132446289	-412.6082153320312	-485.481201171875	520.3403930664062	-170.0030059814453	-1021.756469726562	156.4698028564453	-294.1834411621094	-499.4314270019531	391.2066040039062	-181.7284851074219	-553.2232055664062	451.3482360839844	-177.7341461181641	-959.3638916015624	178.0518188476562	-382.4203186035156	-652.1218872070312	308.4790344238281	-193.4657592773438	-546.4015502929688	126.0931701660156	-221.1113739013672	-712.1331787109375	324.8419494628906	-247.7632293701172	-724.3063354492188	292.6979064941406	-275.7046203613281	-727.6368408203125	309.9547729492188	-218.3472290039062	-1035.542846679688	154.6397399902344	-345.8720092773438
